<?xml version="1.0" encoding="UTF-8" standalone="no"?>
<!DOCTYPE svg PUBLIC "-//W3C//DTD SVG 1.1//EN"
 "http://www.w3.org/Graphics/SVG/1.1/DTD/svg11.dtd">
<!-- Generated by graphviz version 2.42.4 (0)
 -->
<!-- Title: G Pages: 1 -->
<svg width="767pt" height="404pt"
 viewBox="0.00 0.00 766.50 404.00" xmlns="http://www.w3.org/2000/svg" xmlns:xlink="http://www.w3.org/1999/xlink">
<g id="graph0" class="graph" transform="scale(1 1) rotate(0) translate(4 400)">
<title>G</title>
<polygon fill="white" stroke="transparent" points="-4,4 -4,-400 762.5,-400 762.5,4 -4,4"/>
<!-- Users -->
<g id="node1" class="node">
<title>Users</title>
<polygon fill="none" stroke="black" points="158,-396 99,-396 99,-360 158,-360 158,-396"/>
<text text-anchor="middle" x="128.5" y="-374.3" font-family="Times,serif" font-size="14.00">Users</text>
</g>
<!-- ai.ananas.mk -->
<g id="node2" class="node">
<title>ai.ananas.mk</title>
<polygon fill="none" stroke="black" points="183.5,-324 73.5,-324 73.5,-288 183.5,-288 183.5,-324"/>
<text text-anchor="middle" x="128.5" y="-302.3" font-family="Times,serif" font-size="14.00">ai.ananas.mk</text>
</g>
<!-- Users&#45;&gt;ai.ananas.mk -->
<g id="edge1" class="edge">
<title>Users&#45;&gt;ai.ananas.mk</title>
<path fill="none" stroke="black" d="M128.5,-359.7C128.5,-351.98 128.5,-342.71 128.5,-334.11"/>
<polygon fill="black" stroke="black" points="132,-334.1 128.5,-324.1 125,-334.1 132,-334.1"/>
</g>
<!-- Next.js Portal on AWS -->
<g id="node3" class="node">
<title>Next.js Portal on AWS</title>
<polygon fill="none" stroke="black" points="216,-252 41,-252 41,-216 216,-216 216,-252"/>
<text text-anchor="middle" x="128.5" y="-230.3" font-family="Times,serif" font-size="14.00">Next.js Portal on AWS</text>
</g>
<!-- ai.ananas.mk&#45;&gt;Next.js Portal on AWS -->
<g id="edge2" class="edge">
<title>ai.ananas.mk&#45;&gt;Next.js Portal on AWS</title>
<path fill="none" stroke="black" d="M128.5,-287.7C128.5,-279.98 128.5,-270.71 128.5,-262.11"/>
<polygon fill="black" stroke="black" points="132,-262.1 128.5,-252.1 125,-262.1 132,-262.1"/>
</g>
<!-- Microsoft Entra ID + Middleware -->
<g id="node4" class="node">
<title>Microsoft Entra ID + Middleware</title>
<polygon fill="none" stroke="black" points="257,-180 0,-180 0,-144 257,-144 257,-180"/>
<text text-anchor="middle" x="128.5" y="-158.3" font-family="Times,serif" font-size="14.00">Microsoft Entra ID + Middleware</text>
</g>
<!-- Next.js Portal on AWS&#45;&gt;Microsoft Entra ID + Middleware -->
<g id="edge3" class="edge">
<title>Next.js Portal on AWS&#45;&gt;Microsoft Entra ID + Middleware</title>
<path fill="none" stroke="black" d="M128.5,-215.7C128.5,-207.98 128.5,-198.71 128.5,-190.11"/>
<polygon fill="black" stroke="black" points="132,-190.1 128.5,-180.1 125,-190.1 132,-190.1"/>
</g>
<!-- GraphQL / Read API -->
<g id="node5" class="node">
<title>GraphQL / Read API</title>
<polygon fill="none" stroke="black" points="219.5,-108 59.5,-108 59.5,-72 219.5,-72 219.5,-108"/>
<text text-anchor="middle" x="139.5" y="-86.3" font-family="Times,serif" font-size="14.00">GraphQL / Read API</text>
</g>
<!-- Microsoft Entra ID + Middleware&#45;&gt;GraphQL / Read API -->
<g id="edge4" class="edge">
<title>Microsoft Entra ID + Middleware&#45;&gt;GraphQL / Read API</title>
<path fill="none" stroke="black" d="M131.22,-143.7C132.43,-135.98 133.89,-126.71 135.24,-118.11"/>
<polygon fill="black" stroke="black" points="138.72,-118.53 136.81,-108.1 131.8,-117.44 138.72,-118.53"/>
</g>
<!-- PostgreSQL -->
<g id="node6" class="node">
<title>PostgreSQL</title>
<polygon fill="none" stroke="black" points="211,-36 110,-36 110,0 211,0 211,-36"/>
<text text-anchor="middle" x="160.5" y="-14.3" font-family="Times,serif" font-size="14.00">PostgreSQL</text>
</g>
<!-- GraphQL / Read API&#45;&gt;PostgreSQL -->
<g id="edge5" class="edge">
<title>GraphQL / Read API&#45;&gt;PostgreSQL</title>
<path fill="none" stroke="black" d="M144.69,-71.7C147.03,-63.9 149.85,-54.51 152.45,-45.83"/>
<polygon fill="black" stroke="black" points="155.85,-46.69 155.37,-36.1 149.14,-44.68 155.85,-46.69"/>
</g>
<!-- Runtime on AWS EC2 -->
<g id="node7" class="node">
<title>Runtime on AWS EC2</title>
<polygon fill="none" stroke="black" points="441.5,-108 269.5,-108 269.5,-72 441.5,-72 441.5,-108"/>
<text text-anchor="middle" x="355.5" y="-86.3" font-family="Times,serif" font-size="14.00">Runtime on AWS EC2</text>
</g>
<!-- Runtime on AWS EC2&#45;&gt;PostgreSQL -->
<g id="edge6" class="edge">
<title>Runtime on AWS EC2&#45;&gt;PostgreSQL</title>
<path fill="none" stroke="black" d="M307.8,-71.88C280.55,-62.09 246.2,-49.77 217.53,-39.47"/>
<polygon fill="black" stroke="black" points="218.64,-36.15 208.05,-36.07 216.28,-42.74 218.64,-36.15"/>
</g>
<!-- Portal / Teams / Email Outputs -->
<g id="node12" class="node">
<title>Portal / Teams / Email Outputs</title>
<polygon fill="none" stroke="black" points="470.5,-36 234.5,-36 234.5,0 470.5,0 470.5,-36"/>
<text text-anchor="middle" x="352.5" y="-14.3" font-family="Times,serif" font-size="14.00">Portal / Teams / Email Outputs</text>
</g>
<!-- Runtime on AWS EC2&#45;&gt;Portal / Teams / Email Outputs -->
<g id="edge11" class="edge">
<title>Runtime on AWS EC2&#45;&gt;Portal / Teams / Email Outputs</title>
<path fill="none" stroke="black" d="M354.76,-71.7C354.43,-63.98 354.03,-54.71 353.66,-46.11"/>
<polygon fill="black" stroke="black" points="357.16,-45.95 353.23,-36.1 350.16,-46.25 357.16,-45.95"/>
</g>
<!-- CloudWatch / S3 / Secrets Manager -->
<g id="node13" class="node">
<title>CloudWatch / S3 / Secrets Manager</title>
<polygon fill="none" stroke="black" points="758.5,-36 488.5,-36 488.5,0 758.5,0 758.5,-36"/>
<text text-anchor="middle" x="623.5" y="-14.3" font-family="Times,serif" font-size="14.00">CloudWatch / S3 / Secrets Manager</text>
</g>
<!-- Runtime on AWS EC2&#45;&gt;CloudWatch / S3 / Secrets Manager -->
<g id="edge12" class="edge">
<title>Runtime on AWS EC2&#45;&gt;CloudWatch / S3 / Secrets Manager</title>
<path fill="none" stroke="black" d="M420.72,-71.97C459.22,-61.91 508.12,-49.14 548.25,-38.65"/>
<polygon fill="black" stroke="black" points="549.2,-42.02 557.99,-36.11 547.43,-35.25 549.2,-42.02"/>
</g>
<!-- Model Routing Layer -->
<g id="node8" class="node">
<title>Model Routing Layer</title>
<polygon fill="none" stroke="black" points="442,-180 275,-180 275,-144 442,-144 442,-180"/>
<text text-anchor="middle" x="358.5" y="-158.3" font-family="Times,serif" font-size="14.00">Model Routing Layer</text>
</g>
<!-- Model Routing Layer&#45;&gt;Runtime on AWS EC2 -->
<g id="edge7" class="edge">
<title>Model Routing Layer&#45;&gt;Runtime on AWS EC2</title>
<path fill="none" stroke="black" d="M357.76,-143.7C357.43,-135.98 357.03,-126.71 356.66,-118.11"/>
<polygon fill="black" stroke="black" points="360.16,-117.95 356.23,-108.1 353.16,-118.25 360.16,-117.95"/>
</g>
<!-- Specialist Agents -->
<g id="node9" class="node">
<title>Specialist Agents</title>
<polygon fill="none" stroke="black" points="428.5,-252 288.5,-252 288.5,-216 428.5,-216 428.5,-252"/>
<text text-anchor="middle" x="358.5" y="-230.3" font-family="Times,serif" font-size="14.00">Specialist Agents</text>
</g>
<!-- Specialist Agents&#45;&gt;Model Routing Layer -->
<g id="edge8" class="edge">
<title>Specialist Agents&#45;&gt;Model Routing Layer</title>
<path fill="none" stroke="black" d="M358.5,-215.7C358.5,-207.98 358.5,-198.71 358.5,-190.11"/>
<polygon fill="black" stroke="black" points="362,-190.1 358.5,-180.1 355,-190.1 362,-190.1"/>
</g>
<!-- MCP Integrations -->
<g id="node10" class="node">
<title>MCP Integrations</title>
<polygon fill="none" stroke="black" points="430,-324 287,-324 287,-288 430,-288 430,-324"/>
<text text-anchor="middle" x="358.5" y="-302.3" font-family="Times,serif" font-size="14.00">MCP Integrations</text>
</g>
<!-- MCP Integrations&#45;&gt;Specialist Agents -->
<g id="edge9" class="edge">
<title>MCP Integrations&#45;&gt;Specialist Agents</title>
<path fill="none" stroke="black" d="M358.5,-287.7C358.5,-279.98 358.5,-270.71 358.5,-262.11"/>
<polygon fill="black" stroke="black" points="362,-262.1 358.5,-252.1 355,-262.1 362,-262.1"/>
</g>
<!-- Marketing / Business / Internal Systems -->
<g id="node11" class="node">
<title>Marketing / Business / Internal Systems</title>
<polygon fill="none" stroke="black" points="510.5,-396 206.5,-396 206.5,-360 510.5,-360 510.5,-396"/>
<text text-anchor="middle" x="358.5" y="-374.3" font-family="Times,serif" font-size="14.00">Marketing / Business / Internal Systems</text>
</g>
<!-- Marketing / Business / Internal Systems&#45;&gt;MCP Integrations -->
<g id="edge10" class="edge">
<title>Marketing / Business / Internal Systems&#45;&gt;MCP Integrations</title>
<path fill="none" stroke="black" d="M358.5,-359.7C358.5,-351.98 358.5,-342.71 358.5,-334.11"/>
<polygon fill="black" stroke="black" points="362,-334.1 358.5,-324.1 355,-334.1 362,-334.1"/>
</g>
</g>
</svg>
